<?xml version="1.0" standalone="no"?>
<!DOCTYPE svg PUBLIC "-//W3C//DTD SVG 20010904//EN"
 "http://www.w3.org/TR/2001/REC-SVG-20010904/DTD/svg10.dtd">
<svg version="1.0" xmlns="http://www.w3.org/2000/svg"
 width="1200.000000pt" height="1200.000000pt" viewBox="0 0 1200.000000 1200.000000"
 preserveAspectRatio="xMidYMid meet">
<metadata>
Created by potrace 1.11, written by Peter Selinger 2001-2013
</metadata>
<g transform="translate(0.000000,1200.000000) scale(0.100000,-0.100000)"
fill="#000000" stroke="none">
<path d="M5905 11351 c-6 -5 -212 -111 -460 -236 -808 -408 -1559 -788 -3365
-1702 -345 -175 -884 -448 -1725 -873 l-330 -167 -3 -2235 -2 -2234 192 -104
c106 -58 216 -117 243 -132 28 -15 57 -31 65 -35 8 -4 87 -46 175 -93 88 -48
201 -108 250 -135 50 -26 104 -56 120 -65 17 -9 71 -39 120 -65 50 -26 113
-60 140 -75 28 -15 199 -107 380 -205 340 -183 404 -218 490 -265 28 -15 91
-49 140 -75 50 -26 113 -60 140 -75 28 -15 115 -63 195 -106 80 -43 181 -97
225 -121 44 -24 94 -51 110 -59 17 -8 48 -25 70 -37 22 -13 85 -47 140 -76 55
-30 118 -64 140 -76 22 -12 76 -42 120 -65 102 -54 197 -105 260 -140 28 -15
91 -49 140 -75 50 -26 104 -56 120 -65 17 -9 71 -39 120 -65 50 -26 113 -60
140 -75 28 -15 80 -44 118 -64 37 -20 97 -52 135 -72 37 -20 90 -49 117 -64
28 -15 86 -47 130 -70 217 -116 368 -197 520 -280 28 -15 82 -44 120 -65 39
-21 97 -52 130 -70 33 -18 96 -52 140 -75 44 -24 105 -57 135 -73 30 -17 84
-46 120 -65 36 -19 89 -48 118 -63 l53 -29 48 25 c27 13 73 39 102 56 30 17
68 40 86 50 71 40 730 418 763 437 19 11 51 29 70 40 74 41 657 376 692 399
21 12 40 23 43 23 2 0 37 19 77 43 40 24 80 46 88 50 8 4 33 18 55 32 22 14
47 28 55 32 8 4 38 20 65 36 28 17 66 39 85 50 47 26 509 291 585 335 33 19
89 51 125 70 36 20 93 53 128 74 34 21 65 38 67 38 3 0 22 11 43 23 20 13 57
35 82 49 25 14 122 69 215 123 94 53 195 111 225 127 30 17 62 37 71 44 8 8
18 14 21 14 3 0 266 149 585 331 444 255 1195 685 1438 824 11 6 35 20 52 31
l33 19 0 2063 0 2063 -62 -34 c-35 -19 -108 -58 -163 -87 -55 -29 -122 -65
-150 -80 -57 -31 -161 -86 -285 -152 -153 -81 -234 -125 -280 -150 -25 -14
-90 -49 -145 -78 -55 -29 -122 -65 -150 -80 -27 -15 -221 -118 -430 -230 -209
-111 -402 -215 -430 -230 -53 -29 -63 -35 -430 -230 -269 -143 -358 -191 -440
-235 -33 -18 -100 -54 -150 -80 -49 -26 -112 -60 -140 -75 -54 -29 -158 -85
-295 -158 -47 -24 -107 -57 -135 -72 -27 -15 -90 -49 -140 -75 -118 -62 -228
-121 -290 -155 -27 -15 -84 -45 -125 -67 -41 -22 -106 -57 -145 -78 -38 -21
-113 -60 -165 -87 -52 -28 -117 -63 -145 -78 -27 -15 -88 -48 -135 -73 -47
-24 -112 -59 -145 -77 -33 -18 -134 -72 -225 -121 -91 -48 -194 -104 -230
-123 -36 -19 -110 -58 -165 -87 -55 -28 -104 -55 -110 -59 -5 -4 -50 -28 -98
-54 l-88 -47 -37 19 c-37 19 -272 149 -347 192 -44 25 -89 50 -179 100 -32 17
-81 45 -108 61 -27 16 -51 29 -53 29 -2 0 -45 24 -97 53 -51 29 -138 79 -193
109 -55 31 -208 117 -340 191 -132 74 -271 151 -310 172 -38 21 -87 49 -107
62 -21 13 -40 23 -42 23 -3 0 -31 15 -63 34 -32 18 -80 46 -108 61 -121 66
-195 109 -195 114 0 4 88 58 196 121 242 142 296 174 404 237 47 27 274 161
505 298 231 136 531 313 668 394 l247 145 0 1983 c0 2044 1 2008 -35 1974z"/>
</g>
</svg>
